<svg id="Layer_1" data-name="Layer 1" xmlns="http://www.w3.org/2000/svg" viewBox="0 0 280 280"><defs><style>.cls-1{fill:#fff;}</style></defs><title>clear</title><path class="cls-1" d="M140.7793,208.5486A64.4576,64.4576,0,1,1,205.24,144.0912,64.5249,64.5249,0,0,1,140.7793,208.5486Zm0-117.6686a53.211,53.211,0,1,0,53.2145,53.2112A53.2668,53.2668,0,0,0,140.7793,90.88Z"/><path class="cls-1" d="M90.5976,87.9215a4.488,4.488,0,0,1-.4095,6.3207h0a4.4752,4.4752,0,0,1-6.3211-.4161l-33.33-38.0749a4.48,4.48,0,0,1,.4157-6.3108h0a4.4757,4.4757,0,0,1,6.3268.4161Z"/><path class="cls-1" d="M145.4363,67.3341a4.47,4.47,0,0,1-4.4391,4.5037h0a4.4724,4.4724,0,0,1-4.5106-4.4522l-.3582-50.585a4.4708,4.4708,0,0,1,4.4333-4.5135h0a4.483,4.483,0,0,1,4.5169,4.4559Z"/><path class="cls-1" d="M64.2529,131.792a4.4881,4.4881,0,0,1,4.1008,4.8235h0a4.4846,4.4846,0,0,1-4.83,4.1073l-50.4246-4.1073A4.4648,4.4648,0,0,1,9.004,131.792h0a4.4961,4.4961,0,0,1,4.83-4.1229Z"/><path class="cls-1" d="M72.3774,179.7182a4.4762,4.4762,0,0,1,6.18,1.3887h0a4.4843,4.4843,0,0,1-1.3948,6.1832l-42.7672,27.029a4.455,4.455,0,0,1-6.1735-1.3849h0a4.4651,4.4651,0,0,1,1.3948-6.18Z"/><path class="cls-1" d="M110.583,213.0588a4.48,4.48,0,0,1,5.7706-2.6163h0a4.51,4.51,0,0,1,2.6233,5.78l-17.83,47.3445a4.4655,4.4655,0,0,1-5.7512,2.6069h0a4.4629,4.4629,0,0,1-2.6356-5.7705Z"/><path class="cls-1" d="M207.2107,189.1964a4.4538,4.4538,0,0,1-1.8807-6.04h0a4.4584,4.4584,0,0,1,6.0456-1.874l44.7758,23.5363a4.4539,4.4539,0,0,1,1.8746,6.0361h0a4.4771,4.4771,0,0,1-6.0583,1.8935Z"/><path class="cls-1" d="M217.4594,134.6a4.47,4.47,0,0,1-4.9642-3.9119h0a4.4735,4.4735,0,0,1,3.928-4.98l50.2458-5.8767a4.4635,4.4635,0,0,1,4.9641,3.9186h0a4.4785,4.4785,0,0,1-3.9279,4.99Z"/><path class="cls-1" d="M184.4868,260.6755a4.48,4.48,0,0,1-2.7252,5.7257h0a4.4824,4.4824,0,0,1-5.7064-2.7381L159.23,215.9346a4.4783,4.4783,0,0,1,2.7314-5.7035h0a4.4609,4.4609,0,0,1,5.7134,2.7319Z"/><path class="cls-1" d="M192.7652,89.1653a4.4815,4.4815,0,0,1-6.2886.79h0a4.4737,4.4737,0,0,1-.7743-6.2787L216.8582,43.788a4.47,4.47,0,0,1,6.2821-.7771h0a4.487,4.487,0,0,1,.7615,6.2983Z"/></svg>