<svg id="Layer_1" data-name="Layer 1" xmlns="http://www.w3.org/2000/svg" viewBox="0 0 280 280"><defs><style>.cls-1{fill:#fff;}</style></defs><title>clouds</title><path class="cls-1" d="M168.5192,99.9616a2.4757,2.4757,0,1,0,3.7191-3.2687L153.8132,75.6356a2.4777,2.4777,0,1,0-3.7326,3.26Z"/><path class="cls-1" d="M200.1267,87.792a2.4743,2.4743,0,0,0,2.4555-2.4914l-.2016-27.9893a2.4757,2.4757,0,1,0-4.9512.038l.2016,27.9827A2.4746,2.4746,0,0,0,200.1267,87.792Z"/><path class="cls-1" d="M263.8257,161.3687l-24.77-13.0278a2.4723,2.4723,0,1,0-2.303,4.3754l24.76,13.0391a2.4808,2.4808,0,0,0,3.3517-1.0552A2.4433,2.4433,0,0,0,263.8257,161.3687Z"/><path class="cls-1" d="M269.6417,114.3381l-27.79,3.2509a2.4821,2.4821,0,0,0-2.1686,2.7558,2.4564,2.4564,0,0,0,2.7422,2.1665l27.7989-3.2442a2.4817,2.4817,0,0,0-.5826-4.929Z"/><path class="cls-1" d="M214.8866,165.8632a2.48,2.48,0,0,0-4.6781,1.6464l9.311,26.4053a2.4724,2.4724,0,1,0,4.66-1.6531Z"/><path class="cls-1" d="M228.7548,97.3829l17.2374-22.0612a2.476,2.476,0,1,0-3.9072-3.0423L224.8516,94.3452a2.473,2.473,0,1,0,3.9032,3.0377Z"/><path class="cls-1" d="M200.0012,91.2378a36.2958,36.2958,0,0,0-35.909,42.7243,31.9486,31.9486,0,0,1,8.4148,1.57,28.7557,28.7557,0,1,1,20.15,19.81,31.7738,31.7738,0,0,1,1.7385,8.39,36.4661,36.4661,0,1,0,5.6055-72.4947Z"/><path class="cls-1" d="M194.4093,168.67c.0717-.8692.1031-1.75.1031-2.6372,0-.7614-.0628-1.51-.1167-2.26a31.7745,31.7745,0,0,0-1.7385-8.3906,31.9542,31.9542,0,0,0-28.565-21.38c-.5691-.0288-1.1249-.0849-1.6983-.0849a31.837,31.837,0,0,0-16.61,4.6265,36.1962,36.1962,0,0,0-5.8387-14.0565l17.3141,1.4118a2.4752,2.4752,0,1,0,.4077-4.9336L135.5,119.1507a38.2365,38.2365,0,0,0-29.1026-11.1259c-18.5418.9253-33.2566,14.4326-35.7927,31.8071a30.5864,30.5864,0,0,0-10.1266-1.7207,32.1562,32.1562,0,0,0-32.1228,32.1231c0,.3291.0089.6494.036.99-8.9663,2.4531-21.6828,7.6913-21.6649,25.9549.0178,14.5377,12.9137,26.3672,28.7486,26.3672l1.5235-.0334c9.8533-.4884,50.6688.0334,50.6688.0265l.0092-.6742c.0717.009.1434.02.2151.0291l.0268.6431-.0089-.6364c5.426.7326,17.9951.7574,47.2233.8155,0,0,22.0048.3695,37.9477.3695h.0268c5.9864,0,11.13-.0512,13.9756-.1969a27.3775,27.3775,0,0,0,19.7783-10.29,30.4933,30.4933,0,0,0,7.12-20.6613C213.4167,181.6422,205.562,172.1094,194.4093,168.67Zm6.39,39.904a19.6568,19.6568,0,0,1-14.1055,7.4515c-2.7693.1388-7.77.1837-13.5859.1837h-.0268c-15.8891,0-37.8043-.37-37.8717-.37-18.2234-.036-45.8657-.1074-47.3082-.1636l-.0988,1.7812-.0311-1.7921s-18.8732-.24-34.1214-.24c-7.3263,0-13.823.0558-17.0451.22l-1.1292.027c-11.4931,0-20.8624-8.2987-20.8713-18.5037-.0089-12.1451,6.64-16.0949,18.9268-19.1306l2.7825-1.1808.2552-2.7938-.1342-1.7185a15.6491,15.6491,0,0,1-.2016-2.11,24.2707,24.2707,0,0,1,24.2457-24.2457,23.82,23.82,0,0,1,11.7618,3.19l5.9822,3.3516-.1167-6.8533c-.2687-15.8867,12.3312-28.973,28.6862-29.7837l1.5952-.04a30.576,30.576,0,0,1,19.1643,6.6855,2.4192,2.4192,0,0,0,1.0218.8579,28.6927,28.6927,0,0,1,9.88,20.2172c.0317.56,0,1.1068-.0714,2.5318l-.381,10.1556,7.12-7.2475a24.212,24.212,0,0,1,41.0217,21.8144l-.802,3.9636,3.9831.699c9.45,1.6623,16.3507,8.9839,16.79,17.7976A22.5452,22.5452,0,0,1,200.7989,208.5742Z"/></svg>