<?xml version="1.0" encoding="utf-8"?>
<!-- Generator: Adobe Illustrator 22.0.1, SVG Export Plug-In . SVG Version: 6.00 Build 0)  -->
<svg version="1.1" id="Layer_1" xmlns="http://www.w3.org/2000/svg" xmlns:xlink="http://www.w3.org/1999/xlink" x="0px" y="0px"
	 viewBox="0 0 280 280" style="enable-background:new 0 0 280 280;" xml:space="preserve">
<style type="text/css">
	.st0{fill:#FFFFFF;}
</style>
<g>
	<g>
		<path class="st0" d="M232.1,117.4c0.1-1,0.1-2.1,0.1-3.1c0-19.3-15.7-35-35-35c-6.6,0-12.9,1.8-18.4,5.2
			c-3.4-19.9-21.7-34.8-43-33.7c-20.3,1-36.5,15.9-39.1,35c-3.7-1.3-7.5-2-11.3-2c-19.3,0-35,15.7-35,35c0,0.4,0,0.8,0,1.3
			c-9.8,2.7-23.8,8.3-23.8,28.3c0,14.9,12.4,27.6,29.2,28.4l5.2-7.9c-0.6,0-1.3,0-1.8,0.1l-1.3,0c-12.8,0-23.1-9.2-23.2-20.6
			c0-13.5,7.3-17.9,21-21.3l3.1-1.2l0.1-3.1l-0.2-1.7c-0.1-0.8-0.2-1.6-0.2-2.4c0-14.8,12.1-26.9,26.9-26.9c4.5,0,8.9,1.2,13,3.5
			l6.2,3.5l-0.1-7.1c-0.3-17.6,13.6-32,31.7-32.9L138,59c17.8,0,32.4,13.5,33.2,30.7c0,0.6,0,1.2-0.1,2.8l-0.4,10.5l7.4-7.5
			c5.1-5.2,11.9-8,19.1-8c14.8,0,26.9,12.1,26.9,26.9c0,1.8-0.2,3.6-0.5,5.4l-0.8,4.1l4.1,0.7c10.5,1.8,18.2,10,18.6,19.8
			c0.5,9.8-6.3,21-16.6,24.3l2.7,7.6c13-4.3,22.7-17.7,22-32.2C253,131.6,244.4,121.1,232.1,117.4z"/>
	</g>
	<g>
		<path class="st0" d="M99.4,208.7L99.4,208.7c-13.5-18.1-12.6-49.3-13.2-39.3c-1.7,26.1-12,39.3-12,39.3l0,0
			c-0.9,1.6-1.3,3.4-1.3,5.3c0,6.9,6.2,12.5,14,12.5c7.7,0,14-5.6,14-12.5C100.8,212.1,100.3,210.3,99.4,208.7z"/>
	</g>
	<g>
		<path class="st0" d="M142.4,184.1L142.4,184.1c-11.8-15.8-11-43-11.6-34.3c-1.5,22.8-10.4,34.3-10.4,34.3l0,0
			c-0.7,1.4-1.2,3-1.2,4.7c0,6,5.5,10.9,12.2,10.9c6.7,0,12.2-4.9,12.2-10.9C143.5,187.1,143.1,185.5,142.4,184.1z"/>
	</g>
	<g>
		<path class="st0" d="M175.6,215.8L175.6,215.8c-10.8-14.5-10.1-39.4-10.6-31.4c-1.3,20.8-9.6,31.4-9.6,31.4l0,0
			c-0.7,1.3-1.1,2.7-1.1,4.3c0,5.5,5,10,11.2,10c6.1,0,11.1-4.5,11.1-10C176.7,218.6,176.3,217.1,175.6,215.8z"/>
	</g>
	<g>
		<path class="st0" d="M189,173.3L189,173.3c-6.8-9.1-6.3-24.8-6.7-19.8c-0.9,13.1-6,19.8-6,19.8l0,0c-0.4,0.8-0.7,1.7-0.7,2.7
			c0,3.5,3.1,6.3,7,6.3c3.9,0,7-2.8,7-6.3C189.7,175,189.5,174.1,189,173.3z"/>
	</g>
</g>
</svg>
