<svg id="Layer_1" data-name="Layer 1" xmlns="http://www.w3.org/2000/svg" viewBox="0 0 280 280"><defs><style>.cls-1{fill:#fff;}</style></defs><title>snow</title><path class="cls-1" d="M239.607,97.2681c.0933-1.11.1453-2.2114.1453-3.313a37.7341,37.7341,0,0,0-37.6931-37.6878,37.26,37.26,0,0,0-19.8158,5.6407c-3.6712-21.46-23.3317-37.5168-46.3514-36.2462-21.9,1.0863-39.2693,17.1172-42.1,37.6828a36.403,36.403,0,0,0-12.205-2.1231A37.7389,37.7389,0,0,0,43.8941,98.9169c0,.4532.01.8941.0516,1.374-10.5248,2.8721-25.6436,8.954-25.6123,30.4859.0207,15.9975,13.314,29.7321,31.43,30.58l5.5477-8.5525c-.6635.0131-1.41.0387-1.9181.06l-1.3483.0337c-13.7395,0-24.9282-9.9364-24.9382-22.1257-.0209-14.5483,7.922-19.264,22.5743-22.9009l3.297-1.2576.0936-3.331-.1556-1.7808a17.8977,17.8977,0,0,1-.2489-2.5846,28.9593,28.9593,0,0,1,28.92-28.918,28.4875,28.4875,0,0,1,14.04,3.8l6.6677,3.7332-.1347-7.632c-.3215-18.9217,14.6834-34.5124,34.1672-35.4794l1.8977-.0414c19.163,0,34.8826,14.5094,35.8061,33.0762.0306.6555-.0108,1.3219-.0938,3.0124l-.3938,11.2763,7.912-8.0466A28.6705,28.6705,0,0,1,202.0592,65.04,28.9591,28.9591,0,0,1,230.99,93.9551a29.5,29.5,0,0,1-.5908,5.7836l-.8921,4.404,4.428.7831c11.3026,1.9754,19.5465,10.7221,20.0647,21.27.5288,10.5979-6.7606,22.6289-17.8457,26.1206l2.9348,8.1582a35.4643,35.4643,0,0,0,23.6733-34.704C262.1086,112.4642,252.7971,101.2392,239.607,97.2681Z"/><circle class="cls-1" cx="126.2898" cy="158.2612" r="9.4362"/><circle class="cls-1" cx="201.154" cy="206.6985" r="12.5127"/><circle class="cls-1" cx="149.8023" cy="204.4619" r="14.0763"/><circle class="cls-1" cx="93.5516" cy="237.7817" r="12.1151"/><circle class="cls-1" cx="77.8671" cy="172.6618" r="13.4881"/><circle class="cls-1" cx="195.4236" cy="159.0902" r="10.2652"/></svg>