<svg id="Layer_1" data-name="Layer 1" xmlns="http://www.w3.org/2000/svg" viewBox="0 0 280 280"><defs><style>.cls-1{fill:#fff;}</style></defs><title>thunderstorm</title><path class="cls-1" d="M232.2184,78.31c.0956-1.0192.1388-2.0434.1388-3.0605a34.9144,34.9144,0,0,0-34.8819-34.87,34.4864,34.4864,0,0,0-18.3325,5.2188c-3.3815-19.8487-21.5857-34.7042-42.8878-33.534-20.2661,1.01-36.3111,15.844-38.9495,34.8674a33.4371,33.4371,0,0,0-11.2726-1.9641A34.9181,34.9181,0,0,0,51.1517,79.84c0,.4174.0135.8324.0432,1.2711-9.7373,2.65-23.7155,8.2814-23.692,28.2023.02,14.8007,12.3189,27.5044,29.0736,28.2983l5.1374-7.9193c-.6185.0145-1.2948.0312-1.78.0574l-1.2523.036c-12.7011,0-23.0525-9.19-23.0673-20.4841-.01-13.4479,7.3294-17.8177,20.89-21.18l3.06-1.1583.0869-3.0818-.1535-1.6549a16.2981,16.2981,0,0,1-.2257-2.3865A26.7893,26.7893,0,0,1,86.0329,53.0816,26.3821,26.3821,0,0,1,99.0178,56.6l6.1634,3.4536-.1245-7.061c-.2972-17.51,13.59-31.9244,31.62-32.8144l1.7412-.05c17.7339,0,32.2676,13.4334,33.1259,30.603a26.9031,26.9031,0,0,1-.0857,2.7966l-.3644,10.4235,7.32-7.4447A26.74,26.74,0,0,1,224.241,75.25a26.9519,26.9519,0,0,1-.5463,5.3462l-.8257,4.0819,4.0967.7125c10.4525,1.8346,18.0785,9.9339,18.5687,19.693.4939,9.7949-6.2652,20.93-16.5056,24.1587l2.7093,7.5474a32.79,32.79,0,0,0,21.8928-32.1069C253.0266,92.3669,244.4215,81.994,232.2184,78.31Z"/><polygon class="cls-1" points="67.618 269.836 68.914 267.829 114.444 197.602 70.214 197.526 107.868 137.399 111.514 137.399 86.019 189.736 133.492 189.971 67.618 269.836"/><polygon class="cls-1" points="137.862 242.061 139.022 240.259 179.843 177.303 140.193 177.236 173.947 123.332 177.209 123.332 154.348 170.254 196.929 170.46 137.862 242.061"/></svg>