<svg id="Layer_1" data-name="Layer 1" xmlns="http://www.w3.org/2000/svg" viewBox="0 0 280 280"><defs><style>.cls-1{fill:#fff;}</style></defs><title>tornado</title><path class="cls-1" d="M221.6741,73.4146c.0857-.8687.1225-1.74.1225-2.6084a29.7563,29.7563,0,0,0-29.7279-29.7219,29.3942,29.3942,0,0,0-15.63,4.4484c-2.8827-16.9184-18.3952-29.5808-36.5524-28.5833-17.2742.8609-30.9588,13.5046-33.1993,29.7219a28.4745,28.4745,0,0,0-9.6162-1.6742A29.7568,29.7568,0,0,0,67.3467,74.7188c0,.3558.0042.7095.0368,1.0834C59.08,78.0614,47.17,82.8632,47.1856,99.8412c.0211,12.6151,10.5,23.4438,24.7814,24.12l4.379-6.75c-.5235.0124-1.1037.0268-1.5126.0492l-1.0674.0307c-10.8261,0-19.6577-7.8316-19.6619-17.46-.0084-11.4623,6.239-15.187,17.8061-18.0531L74.51,80.79l.0742-2.6268-.1309-1.4106a15.236,15.236,0,0,1-.184-2.0342A22.8325,22.8325,0,0,1,97.0705,51.9109,22.5055,22.5055,0,0,1,108.1468,54.91l5.2456,2.9437-.0983-6.0183c-.2533-14.9254,11.5834-27.2115,26.9477-27.97l1.4884-.0431c15.1115,0,27.5038,11.45,28.2317,26.0871a21.8971,21.8971,0,0,1-.0736,2.3816l-.3106,8.8846,6.2431-6.3432a22.7765,22.7765,0,0,1,38.5916,20.53l-.699,3.48,3.4919.6091c8.9088,1.5638,15.41,8.4634,15.8226,16.7836.4215,8.3446-5.3355,17.84-14.0651,20.592l2.31,6.4335a27.9537,27.9537,0,0,0,18.6607-27.3669C239.4187,85.3985,232.0829,76.5549,221.6741,73.4146Z"/><path class="cls-1" d="M145.3161,136.51c-.9365,0-1.8847-.0021-2.8375-.0124-38.3388-.3965-56.2305-7.4635-56.9663-7.7641l1.7953-4.442c.1666.0672,17.9239,7.026,55.2283,7.4146,37.5084.5009,60.249-7.3736,60.47-7.4578l1.5741,4.528C203.6521,129.0991,181.9132,136.51,145.3161,136.51Z"/><path class="cls-1" d="M145.4633,156.4575h-.3721c-22.5856-.0612-52.1049-7.5374-53.352-7.8561l1.1772-4.6405c.3027.0736,30.2105,7.6435,52.1953,7.705h.339c26.1426,0,51.4626-7.5964,51.7243-7.6763l1.3864,4.5834C197.5024,148.896,172.3211,156.4575,145.4633,156.4575Z"/><path class="cls-1" d="M151.7228,174.425c-26.3628,0-43.5676-4.3851-44.2877-4.5651l1.1941-4.6426c.1677.0452,17.3883,4.4158,43.0936,4.4158,25.5943,0,42.7413-5.7977,42.9174-5.8569l1.5625,4.53C195.47,168.5536,178.18,174.425,151.7228,174.425Z"/><path class="cls-1" d="M145.786,190.5421c-1.6356,0-3.2874-.0307-4.9713-.0962-22.8557-.9115-30.8895-4.9552-31.229-5.1229l2.2079-4.2563-1.1037,2.1262,1.0879-2.1322c.0731.0368,7.698,3.7388,29.2208,4.5934a121.0411,121.0411,0,0,0,38.9763-4.7366l1.5168,4.5506A122.9325,122.9325,0,0,1,145.786,190.5421Z"/><path class="cls-1" d="M135.23,209.4148c-14.4692,0-29.5067-3.5079-30.1452-3.6592l1.1079-4.661c.1471.0326,15.1362,3.53,29.0373,3.53a114.6965,114.6965,0,0,0,26.76-3.51l1.2756,4.6221A118.0977,118.0977,0,0,1,135.23,209.4148Z"/><path class="cls-1" d="M128.7162,229.4674c-10.2049,0-23.7339-2.627-24.3068-2.7395l.92-4.7c.1393.0226,13.6515,2.6472,23.3865,2.6472,9.7513,0,23.2478-2.6246,23.3907-2.6472l.9166,4.7C152.4544,226.84,138.9253,229.4674,128.7162,229.4674Z"/><path class="cls-1" d="M133.9535,247.3423c-7.7521,0-17.957-2.6635-18.39-2.7739l1.2224-4.6344c.0983.0265,10.0457,2.6168,17.1676,2.6168,7.1308,0,17.0576-2.59,17.1643-2.6168l1.2183,4.6344C151.9025,244.6788,141.7061,247.3423,133.9535,247.3423Z"/><path class="cls-1" d="M142.97,264.1057c-5.8269,0-13.0387-2.2428-13.3577-2.3469l1.4389-4.565c.0658.0144,7.18,2.3734,12.4864,2.11,5.1153-.1737,12.2414-2.9578,12.3029-2.9846l1.758,4.4543c-.3269.127-7.96,3.1114-13.8927,3.3221C143.4641,264.1057,143.2186,264.1057,142.97,264.1057Z"/></svg>