<?xml version="1.0" encoding="utf-8"?>
<!-- Generator: Adobe Illustrator 22.0.1, SVG Export Plug-In . SVG Version: 6.00 Build 0)  -->
<svg version="1.1" id="Layer_1" xmlns="http://www.w3.org/2000/svg" xmlns:xlink="http://www.w3.org/1999/xlink" x="0px" y="0px"
	 viewBox="0 0 280 280" style="enable-background:new 0 0 280 280;" xml:space="preserve">
<style type="text/css">
	.st0{clip-path:url(#SVGID_2_);fill:#5AC8FF;}
	.st1{clip-path:url(#SVGID_4_);}
	.st2{fill:#33B455;}
	.st3{fill:#0B729B;}
	.st4{fill:#0A080A;}
	.st5{opacity:0.5;}
	.st6{fill:#F8FCFF;}
	.st7{fill:#571428;}
	.st8{clip-path:url(#SVGID_6_);fill:#FE968C;}
	.st9{clip-path:url(#SVGID_8_);fill:#FFFFFF;}
	.st10{clip-path:url(#SVGID_10_);fill:#FFFFFF;}
	.st11{clip-path:url(#SVGID_12_);fill:#FFFFFF;}
	.st12{clip-path:url(#SVGID_14_);fill:#FFFFFF;}
	.st13{fill:#188933;}
	.st14{fill:#51504C;}
	.st15{fill:#EFBB84;}
	.st16{fill:#FFFFEB;}
	.st17{fill:#EEEECC;}
	.st18{fill:#403F3B;}
</style>
<g>
	<g>
		<g>
			<g>
				<defs>
					<circle id="SVGID_1_" cx="140.5" cy="139.8" r="136.1"/>
				</defs>
				<clipPath id="SVGID_2_">
					<use xlink:href="#SVGID_1_"  style="overflow:visible;"/>
				</clipPath>
				<ellipse class="st0" cx="140.5" cy="139.9" rx="136.1" ry="136.1"/>
			</g>
		</g>
		<g>
			<g>
				<defs>
					<circle id="SVGID_3_" cx="140.5" cy="139.9" r="136.1"/>
				</defs>
				<clipPath id="SVGID_4_">
					<use xlink:href="#SVGID_3_"  style="overflow:visible;"/>
				</clipPath>
				<g class="st1">
					<path class="st2" d="M91.7,239.8c1.8-4.3,3.8-8.6,5.5-13c2-5.3,3.7-10.7,5.8-16c2.2-5.6,5.1-12.7,11.8-13.6
						c3.9-0.5,6.8-1.1,9.1-4.5c1.3-2,2.1-4.1,2.8-6.4c1-3.5,3.2-4.6,6-6.5c6.3-4.3,9.6-16.7,6.2-23.5c-4.3-8.7-14.7-11.4-22.7-15.4
						c-4.9-2.4-9-6.8-13.7-9.7c-4-2.5-8.2-3.9-12.8-3.8c-1.3,0-4.1,1.4-5.3,0.5c-1.5-1.2-2.1-4.1-2.9-5.8c-0.6-1.4-1.3-2.5-2.2-3.4
						c0.6-1.6,0.3-3.4-1.4-4.8c-6.1-5.2-10.1-3.4-17.2-1.6c-0.6,0.2-2-7.2-2.3-8.1c-0.9-3.6-3.3-6.7-5.5-9.6
						c-4.3-5.6-1.3-13-4.7-19.2c-1.1-2,0.6-2.5,2.4-2.7c2.6-0.3,4.7,0.1,6.6,1.9c2.3,2.1,3.5,4.9,6,6.8c1.7,1.3,3.6,1.5,5.3,0
						c3-2.6,4.7-6.1,6.6-9.6c0.9-1.7,1.9-3.6,3.1-5.1c2.1-2.6,5.7-2.1,8.6-2.4c3.9-0.4,6.3-3,7.9-6.4c2.4-4.9,4.3-7.5,9.8-8.6
						c6-1.2,14.7-0.5,19.4-5.1c2.1-2,1.4-6,0.9-8.4c-0.7-3.5-3.7-5.5-6.9-6.4c-6.2-1.8-14.6,1.2-20.4,3.3c-5.5,2-4-2.8-2.8-6.5
						c0.8-2.5,2.1-4.9,3.9-6.9c2.7-3.1,5.1-0.9,8,0c1.7,0.5,3.3,0.7,5.1,0.6c3.2-0.1,4.3,0.1,7,1.7c1.9,1.2,5.6,1.7,6.8-0.8
						c1.7-3.5-0.2-5.8-0.9-9.3c-0.5-2.8-1-4.8-2.2-6.8c0-0.2,0-0.3,0-0.5c0-2.8-1.8-5.6-5.4-5.6c-0.2,0-0.5,0-0.7,0
						c-1.5,0-2.7,0.5-3.5,1.3c-0.7,0.2-1.5,0.4-2.4,0.2c-2.5-0.4-5-1.8-7.4-2.8c-7.1-3-13-0.6-19.8,2.1c-8,3.2-15.8,6.7-23.8,9.7
						c-8,2.9-16.1,5.1-23.9,8.4C23,22.8,16.2,31.8,12.7,44.8C11.6,50,9.9,55.2,11.2,61c1.4,6.4,7.5,10.3,12.7,13.4
						c2.5,1.5,4.4,3,5.2,6c0.9,3.3-0.2,7,1,10.5c2.2,6.7,8.8,10.7,11.1,17.5c2,6,1.3,13.8,5.2,18.9c2.4,3.1,4.7,4.3,5.2,8.6
						c0.4,3.8-0.3,7.9-0.6,11.7c-0.6,6.8-0.4,13.6,2.2,19.9c2.8,6.7,10.4,9.8,12.6,17c2.1,6.8-1.8,14.3-0.2,21.3
						c0.7,3.1,2.5,6.2,3.9,9c2.3,4.7,3.4,9.8,4.6,14.9c1.3,5.7,3.5,17.3,11.7,16.3C89.2,245.7,90.5,242.7,91.7,239.8z"/>
					<path class="st2" d="M279.7,111.8c-0.7-8.5-4.1-16.2-5.6-24.5c-1.8-9.8-4.8-19.3-7.4-28.9c-2.5-9.2-7.8-16.4-14.3-23.2
						c-6-6.3-12.4-11.7-20.5-15.2c-4.6-2-12.3-6.1-17.3-4.4c-0.6,0.2-1.1,0.5-1.6,0.8c-3.3-0.1-6.1,1.1-9.4,1.5
						c-2.1,0.3-4.9-1.3-6.9-2c-3.9-1.3-8.8-0.9-10.8,3.2c-1.9,4-0.2,9.1,2.7,12.1c3.4,3.5,9.8,2.4,12.7,6.2c1.4,1.9,1.5,5.6,2.6,7.9
						c0.8,1.8,3,2.9,4.8,3.6c0.4,0.1,0.7,0.3,1.1,0.4c0.1,0,0.1,0,0.2,0.1c-0.8,0.4-1.8,0.5-2.6,0.7c-2.4,0.5-5,0.4-7.5,0.7
						c-7.7,1.1-11.4,12.2-5.9,17.7c3.1,3.1,8.4,2.1,11.9,0.5c2.8-1.3,5.5-3,8.7-2.4c3.1,0.5,5.5,3.2,8.8,3c2.8-0.2,5.2-0.9,7.8-1.9
						c2.6-0.9,5.6,2.1,7.2,3.6c1.6,1.4,4.7,4.6,3.6,7c-1,2.3-7.7-0.1-9.2-0.6c-5-1.5-8.8-5.1-14-5.6c-5.3-0.5-14,1.2-18.3,4.7
						c-1.7,1.4-2.9,3-4,4.8c-1.4,2.4-1.9,6.5-4.1,8.2c-5.9,4.6-6.8,8.2-4.8,15.4c1.2,4.2-0.8,9.3-1.7,13.4c-0.5,2.4-1.7,6.5-0.8,8.9
						c2.1,5.6,9.1,6.7,14.3,8c6.5,1.6,13.9,0.4,20.1-1.9c6.9-2.6,7.6,7.6,7.9,11.9c0.6,6.8-4,12.2-1,19.1c1.6,3.6,2.6,6.4,2,10.5
						c-0.6,4.2-1.8,8.3-2.3,12.5c-0.8,6.8,1.6,13.5,0.7,20.3c-0.6,4.6-1.7,10,0.5,14.4c2,3.9,6.8,6,10.8,3.9
						c4.2-2.1,6.7-6.7,9.5-10.3c4.2-5.3,6.6-11,8.5-17.4c1.2-3.9,2.1-7.8,3.1-11.7c1-4.1,0.5-10.6,3.2-14c2.1-2.6,5.1-4.2,7-7
						c1.7-2.6,2.9-5.3,4-8.2c2.6-7.1,4.6-15,5.6-22.4C280.5,127.5,280.4,119.6,279.7,111.8z"/>
					<path class="st2" d="M134.4,28.5c3.4,2,7.4,0.5,10.3-1.4c1.8-1.2,3.3-2.7,4.7-4.3c1.9-2.2,2.6-5.1,5.9-5.5
						c2.7-0.3,7.1-1.4,6.1-5.2c-0.9-3.3-5.4-4.7-8.2-5.5c-4.8-1.2-16.8-3.1-19.4,3l0,0c-2.5,2.9,0.4,5.7-0.6,9.3
						C132.1,22.4,130.4,26.2,134.4,28.5z"/>
					<path class="st2" d="M188.5,252.6c-3.1-1.2-6.4-0.2-9.6,0c-5.8,0.4-11.6-1-17.4-0.8c-12,0.5-22.1,7.6-33.8,0.9
						c-3.8-2.2-7.9,0.1-11.6-1.8c-3.2-1.6-3.6-6.4-7.8-6.4c-9.1,0-8.5,13.5-17.5,14.1c-1.4,0.1-2.9,1.2-2.8,2.8
						c0.3,3.7,2.4,8.3,5.4,11.4c0,1.8,0.9,3.6,3,3.9c4.5,0.8,8.4,3.3,12.9,4.2c5.6,1.1,11,2.6,16.8,3.1c5.8,0.5,11.6-0.1,17.4-1
						c6.3-1,12.7-0.9,19-1.7c8.6-1,17.5-3.7,24.3-9.1C191.9,268.1,197.4,255.9,188.5,252.6z"/>
				</g>
			</g>
		</g>
	</g>
	<path class="st3" d="M168.9,253c-75.2,0-136.2-61-136.2-136.1c0-36.1,14.1-68.9,37-93.3C30.5,47.4,4.4,90.6,4.4,139.9
		C4.4,215.1,65.3,276,140.5,276c39.1,0,74.3-16.5,99.1-42.8C218.9,245.7,194.7,253,168.9,253z"/>
	<g>
		<g>
			<path class="st4" d="M76.2,146.6c0.4-1.7,0.7-3.7,1.8-5.1c1-1.2,2.2-1.5,3.1-1.5c0.7,0,1.6,0.6,2.4,1.5c1.7,1.8,1.4,4.5,3.3,6.2
				c2,1.7,5.2,1.6,6.6-0.9c2.3-4.1-0.3-9-3-12.2c-2.2-2.6-6-3.9-9.3-3.8c-8.2,0.2-13,8.3-11.7,15.7
				C70.1,150.1,75.5,149.9,76.2,146.6L76.2,146.6z"/>
		</g>
		<g>
			<path class="st4" d="M204.7,146.6c-0.4-1.7-0.7-3.7-1.8-5.1c-1-1.2-2.2-1.5-3.1-1.5c-0.7,0-1.6,0.6-2.5,1.5
				c-1.7,1.8-1.4,4.5-3.3,6.2c-2,1.7-5.2,1.6-6.6-0.9c-2.3-4.1,0.3-9,3-12.2c2.2-2.6,6-3.9,9.3-3.8c8.2,0.2,13,8.3,11.7,15.7
				C210.9,150.1,205.4,149.9,204.7,146.6L204.7,146.6z"/>
		</g>
	</g>
	<g>
		<g class="st5">
			<g>
				<path class="st6" d="M203.2,64c11.8,8.8,21.1,22.7,27.5,37.1c3,6.8,13,8.5,19,5c7-4.1,8-12.1,5-19c-8.3-18.6-21.1-34.8-37.4-47
					c-6-4.5-15.5-1-19,5C194.1,52.1,197.2,59.5,203.2,64L203.2,64z"/>
			</g>
		</g>
		<g class="st5">
			<g>
				<path class="st6" d="M242.2,134.1c-0.8-1.8-0.5-1.7-0.3,0c0.2,2-0.1-2.4,0-0.1c0.2,2.2,0.2,4.4,0.2,6.7c0,1-0.6,6.3-0.2,3.5
					c-0.3,1.7-0.6,3.4-1.1,5c-2.2,7.2,2.6,15.1,9.7,17c7.4,2,14.8-2.5,17-9.7C271,145,271,131,266.1,120c-3-6.8-13-8.4-18.9-5
					C240.1,119.3,239.1,127.2,242.2,134.1L242.2,134.1z"/>
			</g>
		</g>
		<g class="st5">
			<g>
				<path class="st6" d="M171,45.8c0.5,0,1,0,1.5,0c-1.2-0.2-2.5-0.3-3.7-0.5c0.3,0,0.6,0.1,0.9,0.2c-1.1-0.5-2.2-0.9-3.3-1.4
					c0.2,0.1,0.3,0.2,0.5,0.3c-0.9-0.7-1.9-1.4-2.8-2.2c0.2,0.1,0.3,0.3,0.5,0.5c-0.7-0.9-1.4-1.9-2.2-2.8c0.2,0.3,0.4,0.6,0.5,0.9
					c0.9,1.6,2.1,2.9,3.6,3.9c1.3,1.2,2.9,2.1,4.7,2.5c1.8,0.6,3.7,0.7,5.5,0.2c1.8-0.1,3.6-0.6,5.1-1.6c3-1.9,5.6-4.7,6.4-8.3
					c0.2-1.2,0.3-2.5,0.5-3.7c0-2.5-0.6-4.8-1.9-7c-0.7-1.4-1.8-2.8-2.9-3.9c-1.8-1.8-3.1-2.5-5.2-3.4c-2.5-1.1-3-1.1-6.2-1.4
					c-0.5,0-1,0-1.5,0c-1.9-0.1-3.7,0.3-5.3,1.2c-1.7,0.6-3.2,1.5-4.5,2.9c-1.4,1.3-2.3,2.7-2.9,4.5c-0.9,1.7-1.3,3.4-1.2,5.3
					c0.2,1.2,0.3,2.5,0.5,3.7c0.7,2.3,1.8,4.4,3.6,6.1C163.9,44.2,167.3,45.8,171,45.8L171,45.8z"/>
			</g>
		</g>
	</g>
	<path class="st7" d="M177.7,162.9c0,20.6-16.7,37.3-37.3,37.3s-37.3-16.7-37.3-37.3H177.7z"/>
	<g>
		<g>
			<g>
				<defs>
					<path id="SVGID_5_" d="M177.7,162.9c0,20.6-16.7,37.3-37.3,37.3s-37.3-16.7-37.3-37.3H177.7z"/>
				</defs>
				<clipPath id="SVGID_6_">
					<use xlink:href="#SVGID_5_"  style="overflow:visible;"/>
				</clipPath>
				<path class="st8" d="M169.2,194.4c0,7.1-12.9,12.9-28.7,12.9c-15.9,0-28.7-5.8-28.7-12.9c0-7.1,12.9-12.9,28.7-12.9
					S169.2,187.3,169.2,194.4z"/>
			</g>
		</g>
		<g>
			<g>
				<defs>
					<path id="SVGID_7_" d="M177.7,162.9c0,20.6-16.7,37.3-37.3,37.3s-37.3-16.7-37.3-37.3H177.7z"/>
				</defs>
				<clipPath id="SVGID_8_">
					<use xlink:href="#SVGID_7_"  style="overflow:visible;"/>
				</clipPath>
				<path class="st9" d="M124.9,158.8c0,7.1-4.2,12.9-9.3,12.9c-5.1,0-9.3-5.8-9.3-12.9c0-7.1,4.2-12.9,9.3-12.9
					C120.7,145.9,124.9,151.6,124.9,158.8z"/>
			</g>
		</g>
		<g>
			<g>
				<defs>
					<path id="SVGID_9_" d="M177.7,162.9c0,20.6-16.7,37.3-37.3,37.3s-37.3-16.7-37.3-37.3H177.7z"/>
				</defs>
				<clipPath id="SVGID_10_">
					<use xlink:href="#SVGID_9_"  style="overflow:visible;"/>
				</clipPath>
				<path class="st10" d="M141.5,158.8c0,7.1-4.2,12.9-9.3,12.9c-5.1,0-9.3-5.8-9.3-12.9c0-7.1,4.2-12.9,9.3-12.9
					C137.4,145.9,141.5,151.6,141.5,158.8z"/>
			</g>
		</g>
		<g>
			<g>
				<defs>
					<path id="SVGID_11_" d="M177.7,162.9c0,20.6-16.7,37.3-37.3,37.3s-37.3-16.7-37.3-37.3H177.7z"/>
				</defs>
				<clipPath id="SVGID_12_">
					<use xlink:href="#SVGID_11_"  style="overflow:visible;"/>
				</clipPath>
				<path class="st11" d="M157.9,158.8c0,7.1-4.2,12.9-9.3,12.9s-9.3-5.8-9.3-12.9c0-7.1,4.2-12.9,9.3-12.9
					C153.8,145.9,157.9,151.6,157.9,158.8z"/>
			</g>
		</g>
		<g>
			<g>
				<defs>
					<path id="SVGID_13_" d="M177.7,162.9c0,20.6-16.7,37.3-37.3,37.3s-37.3-16.7-37.3-37.3H177.7z"/>
				</defs>
				<clipPath id="SVGID_14_">
					<use xlink:href="#SVGID_13_"  style="overflow:visible;"/>
				</clipPath>
				<path class="st12" d="M174.6,158.8c0,7.1-4.2,12.9-9.3,12.9s-9.3-5.8-9.3-12.9c0-7.1,4.2-12.9,9.3-12.9
					C170.5,145.9,174.6,151.6,174.6,158.8z"/>
			</g>
		</g>
	</g>
</g>
<g>
	<path class="st13" d="M29.1,80.4c0.9,3.3-0.2,7,1,10.5c0.8,2.6,2.3,4.7,4,6.8c4-28.5,16.9-54.1,35.6-74.1
		C49.8,35.7,33.3,52.8,21.8,73.1c0.7,0.4,1.4,0.9,2.1,1.3C26.4,75.9,28.3,77.4,29.1,80.4z"/>
	<path class="st13" d="M65.5,205.5c0,0.1,0,0.2,0.1,0.3c0.7,3.1,2.5,6.2,3.9,9c2.3,4.7,3.4,9.8,4.6,14.9c1.3,5.7,3.5,17.3,11.7,16.3
		c3.4-0.3,4.7-3.3,5.9-6.2c1.2-2.8,2.4-5.6,3.6-8.4C84.2,224.2,74.1,215.5,65.5,205.5z"/>
	<path class="st13" d="M188.5,252.6c-1.1-0.4-2.3-0.6-3.5-0.6c-5.3,0.6-10.7,1-16.1,1c-4.3,0-8.5-0.2-12.7-0.6
		c-9.8,1.7-18.6,6-28.5,0.3c-3.8-2.2-7.9,0.1-11.6-1.8c-3.2-1.6-3.6-6.4-7.8-6.4c-9.1,0-8.5,13.5-17.5,14.1
		c-1.4,0.1-2.9,1.2-2.8,2.8c0.1,1.4,0.5,3,1.1,4.6c15.9,6.5,33.2,10,51.4,10c18,0,35.2-3.5,50.9-9.9
		C194,261,194.5,254.8,188.5,252.6z"/>
</g>
<g>
	<g>
		<path class="st14" d="M49.8,64.9c0-1.8,3.3-3.3,7.4-3.3c4.1,0,7.4,1.5,7.4,3.3c0,1.8-3.3,3.3-7.4,3.3
			C53.2,68.2,49.8,66.7,49.8,64.9z"/>
		<g>
			<g>
				<path class="st15" d="M79.7,31.6c0,0-2.7-0.2-2.8,1.1C76.7,34,87,40.7,88.1,41.2c1.1,0.5-0.7,5.7-1.1,7.6
					c-0.4,1.8-2.2,10.7-3.3,13.2c-1.1,2.4-2.3,5.2-5.2,5c-2.8-0.3-4.8,0.8-5,1.6c-0.3,0.7,2.9,0.7,5.6,0c2.7-0.7-1.5,0.7-1,2.1
					c0.5,1.4,2-0.7,2.9-1.2c0.9-0.5,3.8,0.2,4.2-2c0.3-2.1-1.5-3.4,1.8-10.4c3.3-7,3.8-13.6,3.8-13.8c0-0.2,2.7-2,0.7-5.1
					C89.5,35,82.4,31.3,79.7,31.6z"/>
				<path class="st15" d="M74.4,33.2c-0.6,0.1,3.5,4.9,5.3,5.6c1.8,0.7,3.7,0.2,4.1,2.9c0.5,2.7-0.9,12.4-1.9,16.2
					c-0.7,2.7,1.3,6.9-6.5,5c-3.6-0.9-5.6,0-5,0.5c0.7,0.6,4.4,0.8,4.4,0.8s-3.7,0.3-3.3,1.4c0.1,0.4,0.4,0.4,1.1,0.1
					c0.7-0.3,4.1-0.7,5.2-0.3c1.1,0.4,3.7,0.4,4.5-2.6c0.7-3,1.5-8.2,2.3-9.9c0.9-1.8,2.6-11.1,3.7-11.7
					C89.5,40.7,87.2,31.5,74.4,33.2z"/>
				<g>
					<g>
						<path class="st14" d="M88.6,45.5c0,0,0.4,0,0.8,0c0.1,0,0.2,0,0.3,0c0.1,0,0.2,0,0.2,0.1c0.1,0.1,0.2,0.2,0.2,0.2l0,0
							c0,0-0.1,0.1-0.3,0.1c-0.1,0-0.2,0-0.3,0c-0.1,0-0.2-0.1-0.3-0.1C88.9,45.7,88.6,45.6,88.6,45.5L88.6,45.5z"/>
						<path class="st14" d="M87.8,47.8c0,0,0.4,0,0.9,0c0.1,0,0.2,0,0.3,0c0.1,0,0.2,0.1,0.3,0.1c0.2,0.1,0.2,0.2,0.2,0.2l0,0
							c0,0-0.1,0.1-0.3,0.1c-0.1,0-0.2,0-0.3,0c-0.1,0-0.2-0.1-0.3-0.1C88.2,48,87.8,47.8,87.8,47.8L87.8,47.8z"/>
						<path class="st14" d="M87.7,50.1c0,0,0.4,0,0.7,0c0.1,0,0.2,0,0.3,0c0.1,0,0.2,0.1,0.2,0.1c0.1,0.1,0.2,0.2,0.2,0.2l0,0
							c0,0-0.1,0.1-0.2,0.1c-0.1,0-0.2,0-0.2,0c-0.1,0-0.2-0.1-0.3-0.1C88.1,50.3,87.7,50.1,87.7,50.1L87.7,50.1z"/>
						<path class="st14" d="M87.2,52.2c0,0,0.2-0.1,0.5-0.1c0.1,0,0.1,0,0.2,0c0.1,0,0.1,0,0.1,0.1c0.1,0.1,0.1,0.2,0.1,0.2l0,0
							c0,0-0.1,0.1-0.2,0.1c0,0-0.1,0-0.2,0c-0.1,0-0.1-0.1-0.2-0.1C87.4,52.3,87.2,52.2,87.2,52.2L87.2,52.2z"/>
						<path class="st14" d="M86.5,54.6c0,0,0.2-0.1,0.5-0.1c0.1,0,0.1,0,0.2,0c0.1,0,0.1,0,0.1,0.1c0.1,0.1,0.1,0.2,0.1,0.2v0
							c0,0-0.1,0.1-0.1,0.1c0,0-0.1,0-0.2,0c-0.1,0-0.1,0-0.2-0.1C86.7,54.7,86.5,54.6,86.5,54.6L86.5,54.6z"/>
						<path class="st14" d="M85.9,56.8c0,0,0,0,0.1-0.1c0.1,0,0.1-0.1,0.2-0.1c0,0,0.1-0.1,0.1-0.1c0,0,0.1,0,0.1,0.1
							c0.1,0.1,0.1,0.2,0.1,0.2v0c0,0,0,0.1-0.1,0.2c0,0-0.1,0.1-0.1,0.1c0,0-0.1,0-0.1-0.1c0,0-0.1,0-0.1,0c0,0-0.1,0-0.1,0
							C85.9,56.8,85.9,56.8,85.9,56.8L85.9,56.8z"/>
					</g>
					<g>
						<path class="st14" d="M84.4,46.6c0,0,0.3,0,0.7,0c0.1,0,0.2,0,0.2,0c0.1,0,0.1,0,0.2,0.1c0.1,0.1,0.2,0.2,0.2,0.2l0,0
							c0,0-0.1,0.1-0.2,0.1c-0.1,0-0.1,0-0.2,0c-0.1,0-0.2-0.1-0.2-0.1C84.7,46.8,84.4,46.6,84.4,46.6L84.4,46.6z"/>
						<path class="st14" d="M84.6,44.4c0,0,0.4,0,0.9,0c0.1,0,0.1,0,0.2,0c0.1,0,0.1,0,0.2,0c0.1,0,0.2,0.1,0.3,0.1
							c0.2,0.1,0.2,0.2,0.2,0.2l0,0c0,0-0.1,0.1-0.3,0.1c-0.1,0-0.2,0-0.3,0c-0.1,0-0.2-0.1-0.3-0.1C85.1,44.6,84.6,44.4,84.6,44.4
							L84.6,44.4z"/>
						<path class="st14" d="M84.3,48.6c0,0,0.3-0.1,0.6-0.1c0.1,0,0.2,0,0.2,0c0.1,0,0.1,0,0.2,0.1c0.1,0.1,0.2,0.2,0.2,0.2l0,0
							c0,0-0.1,0.1-0.2,0.1c-0.1,0-0.1,0-0.2,0c-0.1,0-0.1-0.1-0.2-0.1C84.6,48.7,84.3,48.6,84.3,48.6L84.3,48.6z"/>
						<path class="st14" d="M83.9,50.6c0,0,0.2-0.1,0.5-0.1c0.1,0,0.1,0,0.2,0c0.1,0,0.1,0,0.1,0.1c0.1,0.1,0.1,0.2,0.1,0.2l0,0
							c0,0-0.1,0.1-0.2,0.1c0,0-0.1,0-0.2,0c-0.1,0-0.1-0.1-0.2-0.1C84.1,50.8,83.9,50.7,83.9,50.6L83.9,50.6z"/>
						<path class="st14" d="M83.5,52.8c0,0,0.2-0.1,0.3-0.1c0,0,0.1,0,0.1,0c0,0,0.1,0,0.1,0.1c0.1,0.1,0.1,0.2,0.1,0.2l0,0
							c0,0-0.1,0.1-0.1,0.1c0,0-0.1,0-0.1,0c0,0-0.1,0-0.1-0.1C83.7,53,83.5,52.9,83.5,52.8L83.5,52.8z"/>
						<path class="st14" d="M82.9,54.9c0,0,0.2-0.1,0.3-0.1c0,0,0.1,0,0.1,0c0,0,0.1,0,0.1,0.1c0,0.1,0.1,0.2,0.1,0.2l0,0
							c0,0-0.1,0.1-0.1,0.1c0,0-0.1,0-0.1,0c0,0-0.1-0.1-0.1-0.1C83,55.1,82.9,55,82.9,54.9L82.9,54.9z"/>
						<path class="st14" d="M82.7,56.6c0,0,0,0,0.1,0c0,0,0.1,0,0.1,0c0,0,0.1,0,0.1,0c0,0,0.1,0,0.1,0c0,0,0,0,0.1,0.1
							c0,0.1,0.1,0.2,0.1,0.2l0,0c0,0-0.1,0.1-0.1,0.1c0,0-0.1,0-0.1,0c0,0-0.1-0.1-0.1-0.1c-0.1,0-0.1-0.1-0.2-0.2
							C82.7,56.7,82.7,56.6,82.7,56.6L82.7,56.6z"/>
					</g>
				</g>
			</g>
			<g>
				<path class="st16" d="M103.4,12.9c0-3.3-2.5-2.7-5.8,0.4c1.2-2.6,1.8-5.2,0.8-7.3c-1.6-3.5-4.6-1.4-6.9,2.9
					c-0.1-2.3-0.7-3.9-2.4-3.8c-5,0.5-1.9,15.3-1.9,15.3l1.7,4.3c0,0,0,0,0,0c0,0,0,0,0,0l0,0v0c0,0,0,0,0,0c0,0,0,0,0,0
					c0,0,0.1,0,0.2-0.1c1.5,0.1,11.4,0.6,11.7-2.7c0.1-1.6-1.1-2.1-3-1.9C100.8,17.9,103.4,15.4,103.4,12.9z"/>
				<g>
					<path class="st17" d="M97,21c-0.3,0.2-0.6,0.4-0.9,0.7c1.5-0.2,2.4,0.2,2.3,1.4c0,0.1,0,0.1,0,0.2c0.2-0.2,0.3-0.5,0.3-0.8
						C98.8,21.4,98.1,20.9,97,21z"/>
					<path class="st17" d="M89.4,10.1c1.3-0.1,1.8,1.1,1.9,2.9c1.8-3.4,4.1-4.9,5.4-2.2c0.7,1.6,0.3,3.6-0.6,5.6
						c2.6-2.4,4.5-2.9,4.5-0.3c0,0.4-0.1,0.9-0.3,1.3c0.4-0.6,0.6-1.3,0.6-2c0-2.6-1.9-2.1-4.5,0.3c0.9-2,1.4-4,0.6-5.7
						c-1.2-2.7-3.6-1.1-5.4,2.3c-0.1-1.8-0.5-3-1.9-2.9c-0.9,0.1-1.5,0.8-1.8,1.9C88.2,10.6,88.7,10.2,89.4,10.1z"/>
				</g>
			</g>
			<path class="st14" d="M93.5,25.6c-0.7-5.7-6.8-7-11.8-6.9c0,0-9.7-0.3-13.9,8.9c0.4,0.3,0.6,0.6,0.6,0.8c0,0-0.2-1.9,0.8-2.4
				c1.5-0.7,2.2,2.3,1.5,2.8c0,0,1-0.4,1.6-0.2c1.3,0.4,1,1.9-0.3,2.2c0,0,1.4,0.6,1.4,1.6c-0.1,1-1.1,1.4-1.9,1.3
				c0,0,1,2.1-0.2,2.7c-0.7,0.4-2.1-0.6-2.1-0.6c0,0,0,0.2-0.1,0.4c1.3,1.1,4.8,2.9,9.2,2.2c0,0,10.7,2.6,7.9-2
				C86.2,36.4,94.2,31.4,93.5,25.6z"/>
			<g>
				<path class="st16" d="M73.4,32.4c0.1-1-1.4-1.6-1.4-1.6c1.2-0.3,1.5-1.8,0.3-2.2c-0.6-0.2-1.6,0.2-1.6,0.2
					c0.8-0.5,0-3.5-1.5-2.8c-1,0.5-0.8,2.4-0.8,2.4c0-0.4-2-2.2-2.9-1.2c-0.6,0.6-0.4,1.3,0.1,1.9c0,0,0,0,0,0
					c-0.8,0.1-1.3,0.1-1.4,0.6c-0.1,0.7,0.7,0.9,1.7,1.1c0.6-0.3,0.9-0.4,0.9-0.4c0.6,0.5,1.1,1.1,1.4,2.3c0.3,1,0,1.8-0.2,2.5
					c-0.4,0.2-0.8,0.4-1.2,0.5c0,0,0,0,0,0.1c0,0.8,0.5,1.5,1.2,1.5c0.9,0,1.2-1.4,1.2-1.4c0,0,1.4,1,2.1,0.6
					c1.2-0.7,0.2-2.7,0.2-2.7C72.3,33.8,73.4,33.3,73.4,32.4z"/>
				<g>
					<path class="st17" d="M68.2,29.6c0,0,0-0.1,0-0.4c-0.3-0.4-1.3-1.2-1.9-0.6c0,0,0,0,0,0C67,28.2,68.2,29.3,68.2,29.6z"/>
					<path class="st17" d="M70,29.6c0.3-0.5-0.2-2.2-1.1-1.8c-0.1,0.1-0.2,0.1-0.3,0.3c0.1-0.1,0.1-0.1,0.2-0.1
						C69.7,27.5,70.2,28.9,70,29.6z"/>
					<path class="st17" d="M69.9,29.8c0,0,0.7-0.3,1.1-0.2c0.4,0.1,0.6,0.4,0.6,0.7c0.1-0.4,0-0.7-0.5-0.9c-0.3-0.1-0.8,0.1-1,0.1
						C70,29.7,69.9,29.8,69.9,29.8z"/>
				</g>
			</g>
			<g>
				<path class="st18" d="M99.1,31.4c0.1,0.3-0.1,1.2-1.3,2c-1.2,0.8-4.6,3.9-12.8,5c-8.2,1-10.7-3.9-11-5c-0.4-1.6-1.1-5.6,5.4-7.8
					c6.7-2.3,6.2,0.5,6.5,0.6c0.5,0.3,4.5-1.8,5.7,0.3c0.6,1.1-0.3,1.7-0.7,1.8c0,0,2.9-1,3.8,0.3c0.6,0.9-0.1,1.8-0.7,2.1
					C94.2,30.8,98.5,28.6,99.1,31.4z"/>
				<path class="st14" d="M99.2,31.4c0.1,0.3-0.1,1.2-1.3,2c-1.2,0.8-4.6,3.9-12.8,5c-8.2,1-10.7-3.9-11-5c-0.4-1.6-1.1-5.6,5.4-7.8
					c6.7-2.3,6.2,0.5,6.5,0.6c0.4,0.3,4.5-1.8,5.7,0.3c0.6,1.1-0.3,1.7-0.7,1.8c0,0,2.9-1,3.8,0.3c0.6,0.9-0.1,1.8-0.7,2.1
					C94.4,30.8,98.7,28.6,99.2,31.4z"/>
				<path class="st16" d="M94.7,33.6c1.2-2-3.9-0.9-3.9-0.9c0.4-0.1,1-0.6,0.7-1.3c-0.5-1.1-2.6-0.8-2.6-0.8c0.3,0,0.7-0.3,0.5-1.1
					c-0.5-1.6-3.3-0.8-3.6-1.1c-0.2-0.2,2-2.1-4.3-1.4c-0.9,0.1-1.6,0.3-2.2,0.5c0.4-0.1,0.9-0.2,1.5-0.3c5.8-0.7,4.2,1.2,4.3,1.4
					c0.3,0.2,3.3-0.6,3.9,1c0.3,0.8-0.4,1.1-0.7,1.1c0,0,2.1-0.3,2.6,0.8c0.3,0.7-1.1,1.5-1.5,1.6c0,0,4-1.1,3.9,0.8
					c0,0.2-0.2,0.8-1.2,1.2c-0.3,0.1-0.8,0.4-1.6,0.7c1.1-0.4,1.8-0.7,2.2-0.9C93.7,34.5,94.4,34,94.7,33.6z"/>
				<path class="st16" d="M85.5,26.5c0.5,0.3,4.6-1.8,5.9,0.3c0.4,0.7,0.2,1.2-0.1,1.5c0.4-0.2,1.1-0.8,0.5-1.8
					c-1.2-2.1-5.3-0.1-5.7-0.3c-0.3-0.2,0.2-3-6.5-0.6c-0.4,0.1-0.7,0.3-1,0.4c0.1,0,0.2-0.1,0.3-0.1C85.6,23.5,85.1,26.3,85.5,26.5
					z"/>
			</g>
			<g>
				<path class="st15" d="M67.6,29.6c-0.7,0.4-0.8,0.3-1.7,1.2c-1.6,1.8-3.2,4.4-4.8,7.3c-6,11.2-5.6,25.9-5.5,27
					c0.5,0.2,1.8,0.6,3.2-0.1c0,0,0.2-9.7,3.2-19.3c1.5-5,3.5-8.2,4.9-9.9c0,0,2.7-0.2,2.4-2.1C69.1,32.8,67.6,29.6,67.6,29.6z"/>
				<g>
					<path class="st14" d="M60.3,46.2c0,0,0.2-0.1,0.5-0.1c0.1,0,0.1,0,0.2-0.1c0.1,0,0.1,0,0.1,0c0.1,0,0.2,0.1,0.2,0.1l0,0
						c0,0-0.1,0.1-0.1,0.1c0,0-0.1,0-0.1,0.1c-0.1,0-0.1,0-0.2,0C60.5,46.2,60.3,46.2,60.3,46.2L60.3,46.2z"/>
					<path class="st14" d="M60,44.2c0,0-0.2-0.2-0.3-0.4c0,0-0.1-0.1-0.1-0.1c0,0,0-0.1,0-0.1c0-0.1,0-0.2,0-0.2l0,0
						c0,0,0.1,0,0.1,0.1c0,0,0.1,0.1,0.1,0.1c0,0.1,0,0.1,0.1,0.2C60,44,60,44.2,60,44.2L60,44.2z"/>
					<path class="st14" d="M62.3,41.3c0,0,0.2-0.1,0.5-0.1c0.1,0,0.1,0,0.2,0c0.1,0,0.1,0,0.1,0c0.1,0,0.1,0.1,0.1,0.1v0
						c0,0-0.1,0.1-0.1,0.1c0,0-0.1,0-0.2,0c-0.1,0-0.1,0-0.2,0C62.5,41.4,62.3,41.3,62.3,41.3L62.3,41.3z"/>
					<path class="st14" d="M64.7,36.9c0,0,0.2-0.2,0.3-0.3c0,0,0.1-0.1,0.1-0.1c0,0,0.1-0.1,0.1-0.1c0.1,0,0.2,0,0.2,0l0,0
						c0,0,0,0.1-0.1,0.2c0,0-0.1,0.1-0.1,0.1c0,0-0.1,0.1-0.2,0.1C64.9,36.9,64.7,37,64.7,36.9L64.7,36.9z"/>
					<path class="st14" d="M64.7,34.5c0,0,0.1-0.3,0.2-0.6c0-0.1,0-0.2,0-0.2c0-0.1,0.1-0.1,0.1-0.2c0.1-0.1,0.1-0.1,0.1-0.1l0,0
						c0,0,0,0.1,0,0.2c0,0.1,0,0.1,0,0.2c0,0.1-0.1,0.1-0.1,0.2C64.9,34.2,64.7,34.5,64.7,34.5L64.7,34.5z"/>
					<path class="st14" d="M61.8,39.7c0,0,0-0.2-0.1-0.5c0-0.1,0-0.1,0-0.2c0-0.1,0-0.1,0-0.1c0-0.1,0.1-0.1,0.1-0.1l0,0
						c0,0,0.1,0.1,0.1,0.2c0,0,0,0.1,0,0.2c0,0.1,0,0.1,0,0.2C61.9,39.5,61.9,39.7,61.8,39.7L61.8,39.7z"/>
					<path class="st14" d="M59.1,48.3c0,0-0.2-0.1-0.4-0.2c-0.1,0-0.1,0-0.2-0.1c0,0-0.1-0.1-0.1-0.1c-0.1-0.1-0.1-0.2-0.1-0.2l0,0
						c0,0,0.1,0,0.2,0c0,0,0.1,0,0.2,0.1c0,0,0.1,0.1,0.1,0.1C58.9,48.1,59.1,48.3,59.1,48.3L59.1,48.3z"/>
					<path class="st14" d="M58.7,54.4c0,0,0.2-0.2,0.4-0.3c0,0,0.1-0.1,0.1-0.1c0,0,0.1,0,0.1-0.1c0.1,0,0.2,0,0.2,0l0,0
						c0,0,0,0.1-0.1,0.2c0,0-0.1,0.1-0.1,0.1c-0.1,0-0.1,0-0.2,0.1C58.9,54.3,58.7,54.4,58.7,54.4L58.7,54.4z"/>
					<path class="st14" d="M57.5,59.4c0,0-0.1-0.2-0.2-0.5c0-0.1-0.1-0.1-0.1-0.2c0-0.1,0-0.1,0-0.2c0-0.1,0.1-0.2,0.1-0.2l0,0
						c0,0,0.1,0,0.1,0.1c0,0,0.1,0.1,0.1,0.2c0,0.1,0,0.1,0,0.2C57.6,59.2,57.6,59.4,57.5,59.4L57.5,59.4z"/>
					<path class="st14" d="M57.6,62.4c0,0,0.1-0.2,0.3-0.4c0-0.1,0.1-0.1,0.1-0.2c0,0,0.1-0.1,0.1-0.1c0.1,0,0.2-0.1,0.2-0.1l0,0
						c0,0,0,0.1,0,0.2c0,0,0,0.1-0.1,0.1c0,0-0.1,0.1-0.1,0.1C57.8,62.3,57.6,62.4,57.6,62.4L57.6,62.4z"/>
					<path class="st14" d="M57.9,52.3c0,0-0.2-0.2-0.3-0.5c0-0.1-0.1-0.1-0.1-0.2c0-0.1,0-0.1-0.1-0.2c0-0.1,0-0.2,0-0.2l0,0
						c0,0,0.1,0,0.2,0.1c0,0,0.1,0.1,0.1,0.2c0,0.1,0,0.1,0.1,0.2C57.8,52.1,57.9,52.3,57.9,52.3L57.9,52.3z"/>
				</g>
			</g>
		</g>
	</g>
</g>
</svg>
